<svg width="25" height="18" viewBox="0 0 25 18" fill="none" xmlns="http://www.w3.org/2000/svg">
<path fill-rule="evenodd" clip-rule="evenodd" d="M7.06756 0.907332C8.85784 0.943443 10.8464 1.46399 12.502 2.9864C14.1576 1.46399 16.1461 0.943478 17.9364 0.907398C19.7638 0.87057 21.4352 1.33497 22.4678 1.80433C22.7323 1.92456 22.9125 2.1769 22.9404 2.46613L24.1441 14.9676C24.159 15.1224 24.1291 15.2782 24.0581 15.4166L23.2769 16.9379C22.9523 17.5702 22.3012 17.9678 21.5904 17.9678H3.82669C3.23848 17.9678 2.68358 17.6947 2.32467 17.2287L1.02492 15.541C0.89912 15.3777 0.840122 15.1726 0.859882 14.9674L2.06359 2.466C2.09143 2.17678 2.27161 1.92444 2.53613 1.8042C3.56872 1.33485 5.24013 0.870471 7.06756 0.907332ZM2.60149 13.8344L3.63424 3.10847C4.48847 2.78955 5.71668 2.50541 7.03479 2.532C8.5794 2.56316 10.1961 3.0175 11.5103 4.28452C11.5668 4.33896 11.6268 4.38782 11.6895 4.43109V15.0068C10.0267 13.791 8.14479 13.3465 6.42016 13.3065C5.00488 13.2736 3.67173 13.5114 2.60149 13.8344ZM13.3145 15.0068C14.9772 13.791 16.8592 13.3465 18.5838 13.3065C19.9991 13.2737 21.3322 13.5115 22.4025 13.8346L21.3697 3.10859C20.5155 2.78966 19.2873 2.5055 17.9692 2.53207C16.4245 2.5632 14.8078 3.01751 13.4936 4.28452C13.4371 4.33896 13.3772 4.38782 13.3145 4.43109V15.0068ZM18.6215 14.9311C19.9753 14.8997 21.2473 15.1578 22.2012 15.4753L21.8314 16.1957C21.785 16.286 21.692 16.3428 21.5904 16.3428H14.2412C15.5893 15.3455 17.1367 14.9655 18.6215 14.9311ZM6.38246 14.931C7.86729 14.9655 9.41469 15.3455 10.7628 16.3428H3.82669C3.74266 16.3428 3.66339 16.3038 3.61212 16.2372L2.98098 15.4177C3.91228 15.1272 5.11128 14.9015 6.38246 14.931Z" fill="black"/>
</svg>
